PathFileType	4	(X/Y/Z)	/mnt/D494C4CF94C4B4F0/Trampoline_predictions/poses3d/1_partie_0429_002.trc
DataRate	CameraRate	NumFrames	NumMarkers	Units	OrigDataRate	OrigDataStartFrame	OrigNumFrames
120	120	10	17	m	120	472	1261
Frame#	Time	Nose			L Eye			R Eye			L Ear			R Ear			L Shoulder			R Shoulder			L Elbow			R Elbow			L Wrist			R Wrist			L Hip			R Hip			L Knee			R Knee			L Ankle			R Ankle			
		X1	Y1	Z1	X2	Y2	Z2	X3	Y3	Z3	X4	Y4	Z4	X5	Y5	Z5	X6	Y6	Z6	X7	Y7	Z7	X8	Y8	Z8	X9	Y9	Z9	X10	Y10	Z10	X11	Y11	Z11	X12	Y12	Z12	X13	Y13	Z13	X14	Y14	Z14	X15	Y15	Z15	X16	Y16	Z16	X17	Y17	Z17	
472	3.933333333333333	0.1332788003846048	-0.3773711903839866	4.253469477419408	0.09619177533570754	-0.41018982199783943	4.274844336628296	0.11309919945900654	-0.3640440006679638	4.253847883829867	0.07407401136157876	-0.42101923521985496	4.3667037900719565	0.1374671704927497	-0.3458775108345588	4.30029633216059	0.17479031903396894	-0.4997654126290335	4.514618904363783	0.29809476698859594	-0.27696676091216527	4.379039779207207	0.3365173471931938	-0.5358033038437185	4.703003961275981	0.4661845085367312	-0.1337580510563598	4.504780236451352	0.5294913356049994	-0.45858745677695534	4.838374924352988	0.6311324830983168	0.029788927499468154	4.628586225221172	0.49644153088324855	-0.37967492808342623	4.787640176318796	0.5713922389863012	-0.26288914552888	4.687383676098475	0.7755688185713995	-0.20493577064008384	5.051566391924651	0.7744841646148003	-0.10075924837015837	4.955234708802961	0.9780036952963634	-0.02141268369097116	5.3193109534201515	0.9664501380205053	0.0182944590235927	5.286266716984763
473	3.941666666666667	0.1532510527820744	-0.3769010667953223	4.225228370262818	0.11482867850157444	-0.4088475376320521	4.24144545494087	0.13670961421186034	-0.3610644104975874	4.219079933155647	0.08930762971054462	-0.4068394406495925	4.328466346511018	0.16277091713540542	-0.34920446608478195	4.2573090969399825	0.20039547185900713	-0.5348444517318467	4.4804966661130425	0.3113860832773297	-0.27170826064179926	4.341885367544146	0.3263505364827901	-0.5240603482878575	4.683066742097869	0.48325049162772743	-0.13016375069453848	4.4732226701790765	0.512995361899636	-0.4648225945380994	4.831274758388608	0.6425974899862211	0.03794518878760419	4.585516545020434	0.4863788212983136	-0.3810118456646189	4.773228484576523	0.5735721416086145	-0.26770761566003765	4.6711652863595505	0.7628079430508132	-0.21311152225043298	5.050036698722025	0.7635236857028782	-0.09851810792016207	4.9394382019582155	0.9508226423841714	-0.025401030634064722	5.33065432529816	0.9321441484619803	0.0493890196353747	5.2875251855537355
474	3.95	0.16711809163034141	-0.35977120630631054	4.18994874713934	0.12829860099775864	-0.3922546038004537	4.206983693325796	0.15421794416108994	-0.34707727493058055	4.18457330528443	0.10595945766037818	-0.39050237567702284	4.295437143445307	0.18374924350943364	-0.3393276008933364	4.225829918648595	0.19462417847095728	-0.5081474793545201	4.451617639460638	0.34533195352829155	-0.2844008914457036	4.316603250295927	0.3160858763567164	-0.5161554727457569	4.66658634266306	0.5129590699195312	-0.135954681958642	4.435593985147398	0.4912295201957398	-0.45733354689559536	4.825362443869045	0.6725399538716057	0.03830560198096702	4.545014562169383	0.48947526233519406	-0.3845327044779476	4.75788534993571	0.5825647287523206	-0.2635566064791953	4.659626523540937	0.7414197630952171	-0.22029874149839015	5.049631318576971	0.7557755736240653	-0.10290783765801573	4.942409681209322	0.9160923398649241	-0.017634701288907678	5.340747900910023	0.8993041179971564	0.019997294182480113	5.290769347421867
475	3.9583333333333335	0.19213372864611108	-0.36893652727123283	4.1580035769383015	0.153039917778456	-0.3976666449434629	4.1720850868505375	0.18431099578452298	-0.35558032188957833	4.148557385836015	0.1296648697053838	-0.3928012617736507	4.253131698456891	0.21955177598842146	-0.344907421600585	4.185887879034106	0.20033118482213733	-0.5030823506444766	4.422326393306685	0.3744863392334453	-0.28730229305013844	4.283355786811658	0.31122862566690424	-0.5089799462478336	4.643395516166226	0.5340155343663139	-0.1433533025612396	4.399364251017852	0.4678367201163335	-0.4534953292754706	4.807792698079015	0.7004814448442436	0.029803872998406172	4.501754665659703	0.4835060424697132	-0.37580944383444	4.746528032658332	0.5964771331669615	-0.26985196316712	4.647729234571975	0.7159293117598629	-0.2293726084785443	5.044815121302313	0.7514242262189371	-0.12374919871075535	4.9292669941788265	0.8739929282421823	-0.04854682276166977	5.336397600718111	0.8816865183190616	0.01056038314160336	5.288679017436508
476	3.966666666666667	0.2252265833617486	-0.3673404953190407	4.122912626267048	0.1870250731851498	-0.39658341757423354	4.136083051672161	0.21863629001494944	-0.35696038636563654	4.11230553847428	0.1630653624766885	-0.4359314875853824	4.2061505062080276	0.25130077320907535	-0.3472077841213228	4.150731240394284	0.21035444987531776	-0.5008302175523032	4.389977569799254	0.40841372725239744	-0.2904858043216726	4.253452917210857	0.3106806424300082	-0.5065059843289643	4.61932711638516	0.5847927090434609	-0.16736885143835092	4.369020115889753	0.46356775404356876	-0.46060086615412527	4.796683752747536	0.7315487190520659	0.01588896610562423	4.464371036192545	0.48815843469635395	-0.38533780882164237	4.731025877667482	0.6038750849584323	-0.2695594357763758	4.634749000208669	0.6911566686200269	-0.2249376505356232	5.043105944638048	0.7431274825759642	-0.12355726393609125	4.941712621027217	0.8439796259208404	-0.0570195350908526	5.342971083878978	0.8639212979417745	0.006563643792490331	5.305528416798167
477	3.975	0.24365062917164346	-0.36222677890894484	4.101545147059847	0.20458345600921002	-0.3874022012200933	4.109136447421695	0.24592109819759952	-0.3530307977281711	4.087341051552927	0.18230569063131305	-0.4209848513949149	4.172905892222237	0.2822974573653713	-0.34529618219577773	4.121614059876579	0.21844451892965996	-0.4937639879889702	4.362900416916719	0.4379793639078701	-0.29210664473375186	4.227849465272792	0.3030402045665989	-0.49125210058450747	4.593254925927306	0.6206336647075759	-0.17375389941851044	4.355580849231538	0.4497909657893524	-0.46047122149452524	4.7787909958728685	0.7700246819281361	0.012806720407436184	4.430869539537596	0.4856883258323134	-0.38528090829694106	4.712377116499069	0.6111446355435147	-0.28275253506286846	4.6200860592161055	0.6608925517505387	-0.21691078179284212	5.037114119491202	0.7478871519552907	-0.10696746075548082	4.992338997684393	0.8024313159374885	-0.05546251072735892	5.34596272564483	0.8336782785091321	0.0014744293533831415	5.302726579924513
478	3.9833333333333334	0.2748585665376184	-0.37389956670270974	4.056130501996746	0.23563547986365604	-0.38227842505249326	4.078250914235667	0.27030795702951266	-0.35796130077567784	4.062981939443891	0.21332872772149283	-0.38634238987873154	4.140056873636195	0.30742040235317686	-0.3482525672304733	4.1049141470776345	0.23024913244394693	-0.4874432663303184	4.327957525368142	0.4588614160894148	-0.2892303924902252	4.20850961058053	0.3025843657601375	-0.47893728817495973	4.574937269939517	0.6359805504030367	-0.16610586039865427	4.326697038320623	0.43744992489610635	-0.43771516278861555	4.770472895783362	0.7981038199301721	0.0048375619745413875	4.398199458368795	0.47780541535234905	-0.3757431457029891	4.691020270713439	0.6061694616956307	-0.2805358258299139	4.6095398217416035	0.6417350490037994	-0.24436609510251736	5.016300476990247	0.7223775375184368	-0.13366003200205148	4.957600856975828	0.7710769524939873	-0.06155237904863093	5.337602223736007	0.7948725547859861	-0.013807976452454669	5.292859508588632
479	3.9916666666666667	0.3103318883247168	-0.40050089340298517	4.026954657613679	0.2635801907117853	-0.38737081026365766	4.035187971096688	0.30025799788077545	-0.36014387937796505	4.021482701285217	0.2387833502578756	-0.3864567328277721	4.101934258608218	0.33583288818782864	-0.3390669808470918	4.068019422286888	0.24546427728803163	-0.488600115546545	4.298748200781103	0.48724050185985485	-0.2927202284154115	4.1816716733739305	0.3060210310910368	-0.4832643833731391	4.543469984390039	0.6677928130847358	-0.17081395478439593	4.297609050699861	0.43194489320971247	-0.450891406924092	4.745843269213135	0.8459160672315802	-0.015618470883369925	4.361915905547756	0.4760157834462811	-0.38714591073147214	4.6669131410304034	0.6061969284049546	-0.2754841458465987	4.60484873450717	0.6091162326819001	-0.2490907509956773	5.002291547195192	0.7151599597566244	-0.12994147436158743	4.970505300652516	0.7356631857209157	-0.07620682602375774	5.330473303959451	0.7643406615578185	-0.02645273006531146	5.292085673018654
480	4.0	0.33173599569646434	-0.36378710564123806	4.0024560456173885	0.29088913543694433	-0.3762006089413131	4.014456588564083	0.33518407211755874	-0.34706499219582676	3.991286688453028	0.2720596391602874	-0.37121318066333236	4.066747106388768	0.3648313800578465	-0.35436347031814436	4.041599002502199	0.25877452644599847	-0.47772934869197115	4.267844032716556	0.5221357245088869	-0.2955841364961772	4.160019118072164	0.30602569857078143	-0.47541303808114654	4.514892510147949	0.701459488292639	-0.16807003503254492	4.275813038397698	0.42352255591872756	-0.4494673603511412	4.726069585718881	0.8898174865943002	-0.026090062984419553	4.339630899070925	0.4652829455253513	-0.3877040681168468	4.6388877738115015	0.6008792529274448	-0.2890910256873209	4.57391202505864	0.5871585211990902	-0.25023498132874156	4.9836981729718595	0.6971158655405432	-0.16038101805713503	4.942269727018195	0.6928048560790652	-0.0966619350165908	5.3087933451501454	0.7383270703765648	-0.02838399898033181	5.288723098344164
481	4.008333333333334	0.375207522344169	-0.3888084303729594	3.9739866726099593	0.3391580985220321	-0.38342906612314814	3.9709413169168606	0.3750446831069293	-0.3749009627163689	3.963484437915278	0.307558613241066	-0.374802166153083	4.025891205934287	0.4000837071391386	-0.356285254365086	4.007421307334305	0.27286768756652846	-0.4734780576723771	4.229976571472959	0.5474761119132048	-0.30281523283085193	4.133183466673431	0.30246711289290706	-0.47215258924585807	4.4746086222524415	0.730691000900558	-0.18199685011820987	4.249651334975542	0.4101323548513057	-0.44811747421206716	4.700661152760779	0.9238054630172594	-0.0288804377428982	4.310968665159518	0.46206274557313637	-0.3869193146669585	4.620645163012373	0.6150089362030128	-0.2977676967571826	4.5577986597431	0.5585879694897837	-0.24252726478616304	4.974873529745661	0.6931632334134923	-0.15479925399104483	4.937291074497732	0.6581338847816496	-0.09682517619593135	5.293573581415969	0.7014325427388797	-0.03097999637366462	5.268187404990754
